<svg width="680" height="160" viewBox="0 0 680 160" role="img" xmlns="http://www.w3.org/2000/svg">
  <title>Sonny Brun — Cybersecurity banner</title>
  <rect width="680" height="160" fill="#0d1117"/>
  <defs>
    <pattern id="grid" width="40" height="40" patternUnits="userSpaceOnUse">
      <path d="M 40 0 L 0 0 0 40" fill="none" stroke="#1e2d3d" stroke-width="0.5"/>
    </pattern>
  </defs>
  <rect width="680" height="160" fill="url(#grid)"/>
  <line x1="0" y1="0" x2="680" y2="0" stroke="#b845ff" stroke-width="1.5"/>
  <line x1="0" y1="159" x2="680" y2="159" stroke="#b845ff" stroke-width="1.5"/>
  <line x1="40" y1="0" x2="40" y2="160" stroke="#1e2d3d" stroke-width="0.5"/>
  <line x1="640" y1="0" x2="640" y2="160" stroke="#1e2d3d" stroke-width="0.5"/>
  <text x="342" y="75" text-anchor="middle" font-family="'Orbitron', monospace" font-size="42" font-weight="900" letter-spacing="4" fill="#ff003c" opacity="0.25">SONNY BRUN</text>
  <text x="338" y="73" text-anchor="middle" font-family="'Orbitron', monospace" font-size="42" font-weight="900" letter-spacing="4" fill="#b845ff" opacity="0.25">SONNY BRUN</text>
  <text x="340" y="74" text-anchor="middle" font-family="'Orbitron', monospace" font-size="42" font-weight="900" letter-spacing="4" fill="#e2e8f0">SONNY BRUN</text>
  <text x="340" y="103" text-anchor="middle" font-family="'Share Tech Mono', monospace" font-size="12" letter-spacing="5" fill="#b845ff">CYBERSECURITY  ·  NETWORK  ·  PENTESTING</text>
  <rect x="300" y="126" width="6" height="6" fill="#b845ff" opacity="0.8"/>
  <rect x="312" y="126" width="6" height="6" fill="#b845ff" opacity="0.4"/>
  <rect x="324" y="126" width="6" height="6" fill="#b845ff" opacity="0.2"/>
  <rect x="356" y="126" width="6" height="6" fill="#b845ff" opacity="0.2"/>
  <rect x="368" y="126" width="6" height="6" fill="#b845ff" opacity="0.4"/>
  <rect x="380" y="126" width="6" height="6" fill="#b845ff" opacity="0.8"/>
</svg>
